<?xml version="1.0" encoding="utf-8"?>
<!-- Generator: Adobe Illustrator 19.2.1, SVG Export Plug-In . SVG Version: 6.00 Build 0)  -->
<svg version="1.1" id="Layer_1" xmlns="http://www.w3.org/2000/svg" xmlns:xlink="http://www.w3.org/1999/xlink" x="0px" y="0px"
	 viewBox="0 0 545.7 113.3" style="enable-background:new 0 0 545.7 113.3;" xml:space="preserve">
<style type="text/css">
	.st0{fill:#509DD6;}
	.st1{fill:url(#SVGID_1_);}
	.st2{fill:#FFFFFF;}
</style>
<g>
	<g>
		<path class="st0" d="M117.5,73.4v16.2h-2V56.8h2v14.9h21V56.8h2v32.8h-2V73.4H117.5z"/>
		<path class="st0" d="M155.2,65.4c6.9,0,10.8,5.7,10.8,12.4s-3.9,12.4-10.8,12.4c-6.9,0-10.8-5.7-10.8-12.4S148.3,65.4,155.2,65.4z
			 M155.2,88.7c5.9,0,9.1-5.2,9.1-10.8S161.1,67,155.2,67s-9.1,5.2-9.1,10.8S149.3,88.7,155.2,88.7z"/>
		<path class="st0" d="M170.5,81.8c0.3,4.4,3.5,6.9,7.8,6.9c3.1,0,7.5-0.9,7.5-5c0-4-4-4.6-8.1-5.4c-4.1-0.8-8.1-1.9-8.1-6.7
			c0-4.7,4.5-6.1,8.5-6.1c5,0,8.7,2.2,8.7,7.5h-1.7c0-4.3-3-6-7-6c-3.2,0-6.8,1.2-6.8,4.5c0,3.8,4,4.4,7.9,5.2
			c4.7,0.9,8.4,2,8.4,6.9c0,5.1-5.1,6.5-9.2,6.5c-5.4,0-9.4-2.9-9.6-8.4H170.5z"/>
		<path class="st0" d="M200,67.5h-5.1V84c0,3.8,1.8,4.2,5.1,4.1v1.5c-3.6,0.2-7-0.3-6.8-5.6V67.5h-4.4V66h4.4v-7.4h1.7V66h5.1V67.5z
			"/>
		<path class="st0" d="M203.4,78c-0.1,5.6,2.8,10.6,8.7,10.6c4.5,0,7.6-2.7,8.5-7h1.7c-0.9,5.5-4.6,8.5-10.2,8.5
			c-6.9,0-10.5-5.4-10.4-11.9c-0.1-6.5,3.3-12.8,10.4-12.8c7.4,0,10.7,5.8,10.4,12.6H203.4z M220.8,76.5c-0.1-5-3.2-9.6-8.6-9.6
			c-5.2,0-8.3,4.9-8.7,9.6H220.8z"/>
		<path class="st0" d="M244.4,84.6L244.4,84.6c-2,3.7-4.9,5.6-9.1,5.6c-7.1,0-10.2-5.8-10.2-12.3c0-7,3.4-12.4,10.5-12.4
			c3.9,0,7.5,2.1,8.7,5.8h0.1V56.8h1.7v32.8h-1.7V84.6z M244.3,77.9c0-5.5-2.7-10.9-8.8-10.9c-6.2,0-8.8,5.2-8.8,10.9
			c0,5.6,2.8,10.8,8.8,10.8C241.6,88.7,244.3,83.3,244.3,77.9z"/>
		<path class="st0" d="M289.4,66.6c-0.9-5.5-5.7-8.8-11.2-8.8c-8.6,0-13.6,7-13.6,15.4c0,8.4,5,15.4,13.6,15.4
			c6.4,0,11.3-5.7,11.7-11.8h2c-0.7,7.8-6.5,13.6-13.7,13.6c-9.8,0-15.6-7.6-15.6-17.2S268.4,56,278.2,56
			c11.6,0,13.1,10.1,13.2,10.6H289.4z"/>
		<path class="st0" d="M297.6,56.8v32.8h-1.7V56.8H297.6z"/>
		<path class="st0" d="M312.4,65.4c6.9,0,10.8,5.7,10.8,12.4s-3.9,12.4-10.8,12.4s-10.8-5.7-10.8-12.4S305.5,65.4,312.4,65.4z
			 M312.4,88.7c5.9,0,9.1-5.2,9.1-10.8S318.3,67,312.4,67c-5.9,0-9.1,5.2-9.1,10.8S306.5,88.7,312.4,88.7z"/>
		<path class="st0" d="M345.6,89.6h-1.7v-5.1h-0.1c-1.2,3.5-4.8,5.6-8.5,5.6c-8.3,0-8.4-6.7-8.4-9.6V66h1.7v14.9
			c0,2.4,0.3,7.7,6.7,7.7c5.3,0,8.5-4.1,8.5-9.9V66h1.7V89.6z"/>
		<path class="st0" d="M368.5,84.6L368.5,84.6c-2,3.7-4.9,5.6-9.1,5.6c-7.1,0-10.2-5.8-10.2-12.3c0-7,3.4-12.4,10.5-12.4
			c3.9,0,7.5,2.1,8.7,5.8h0.1V56.8h1.7v32.8h-1.7V84.6z M368.5,77.9c0-5.5-2.7-10.9-8.8-10.9c-6.2,0-8.8,5.2-8.8,10.9
			c0,5.6,2.8,10.8,8.8,10.8C365.7,88.7,368.5,83.3,368.5,77.9z"/>
		<path class="st0" d="M409.4,66.2c-0.2-5.6-4.5-8.4-10.5-8.4c-3.7,0-9,1.6-9,7c0,5.3,5.6,6.2,11.2,7.3c5.6,1.1,11.2,2.6,11.2,9.1
			c0,6.8-6.5,9.2-11.5,9.2c-7.7,0-13.9-3.2-13.8-11.6h2c-0.4,7.2,5.3,9.9,11.8,9.9c4,0,9.5-1.8,9.5-7.5c0-5.6-5.6-6.5-11.2-7.7
			c-5.6-1.1-11.2-2.5-11.2-8.7c0-6.3,5.8-8.7,11-8.7c6.8,0,12.2,2.9,12.5,10.2H409.4z"/>
		<path class="st0" d="M416.9,78c-0.1,5.6,2.8,10.6,8.7,10.6c4.5,0,7.6-2.7,8.5-7h1.7c-0.9,5.5-4.6,8.5-10.2,8.5
			c-6.9,0-10.5-5.4-10.4-11.9c-0.1-6.5,3.3-12.8,10.4-12.8c7.4,0,10.7,5.8,10.4,12.6H416.9z M434.2,76.5c-0.1-5-3.2-9.6-8.6-9.6
			c-5.2,0-8.3,4.9-8.7,9.6H434.2z"/>
		<path class="st0" d="M441.3,71.2h0.1c0.9-3.1,4.8-5.6,9.1-5.4v1.7c-1.8-0.2-4.4,0.2-6.5,2.3c-1.7,1.8-2.5,3.3-2.7,6.8v12.9h-1.7
			V66h1.7V71.2z"/>
		<path class="st0" d="M461.7,89.6h-2.2L450,66h2l8.5,21.6h0.1l8-21.6h1.9L461.7,89.6z"/>
		<path class="st0" d="M473,61.5v-4.7h1.7v4.7H473z M473,89.6V66h1.7v23.6H473z"/>
		<path class="st0" d="M497.7,73.3c-0.3-4.2-3.7-6.3-8-6.3c-5.9,0-9.1,5.2-9.1,10.6c0,6.4,3,11.1,9.1,11.1c4.4,0,7.6-3,8.2-7.4h1.7
			c-0.8,5.7-4.9,8.9-10,8.9c-7.7,0-10.8-6-10.8-12.6c0-6.6,3.9-12.1,10.8-12.1c5.1,0,9.2,2.5,9.7,7.9H497.7z"/>
		<path class="st0" d="M504,78c-0.1,5.6,2.8,10.6,8.7,10.6c4.5,0,7.6-2.7,8.5-7h1.7c-0.9,5.5-4.6,8.5-10.2,8.5
			c-6.9,0-10.5-5.4-10.4-11.9c-0.1-6.5,3.3-12.8,10.4-12.8c7.4,0,10.7,5.8,10.4,12.6H504z M521.3,76.5c-0.1-5-3.2-9.6-8.6-9.6
			c-5.2,0-8.3,4.9-8.7,9.6H521.3z"/>
		<path class="st0" d="M527.5,81.8c0.3,4.4,3.5,6.9,7.8,6.9c3.1,0,7.5-0.9,7.5-5c0-4-4-4.6-8.1-5.4c-4.1-0.8-8.1-1.9-8.1-6.7
			c0-4.7,4.5-6.1,8.5-6.1c5,0,8.7,2.2,8.7,7.5h-1.7c0-4.3-3-6-7-6c-3.2,0-6.8,1.2-6.8,4.5c0,3.8,4,4.4,7.9,5.2
			c4.7,0.9,8.4,2,8.4,6.9c0,5.1-5.1,6.5-9.2,6.5c-5.4,0-9.4-2.9-9.6-8.4H527.5z"/>
	</g>
</g>
<radialGradient id="SVGID_1_" cx="54.7668" cy="54.762" r="63.0074" gradientTransform="matrix(1 0 0 0.8995 0 5.5051)" gradientUnits="userSpaceOnUse">
	<stop  offset="0" style="stop-color:#FFFFFF"/>
	<stop  offset="0.2261" style="stop-color:#F9F9FA"/>
	<stop  offset="0.4565" style="stop-color:#EEEFEF"/>
	<stop  offset="0.6889" style="stop-color:#DDDEDF"/>
	<stop  offset="0.9214" style="stop-color:#C5C7C9"/>
	<stop  offset="1" style="stop-color:#BCBEC0"/>
</radialGradient>
<path class="st1" d="M31,50.2h31.2l16.1-21.6c1.9-2.6,0.9-4.7-2.3-4.7c0,0-42.1,0-43.1,0c-1.1,0-1.3,0.4-0.3,0.8
	c4.9,1.8,12.9,6.2,7.2,13.9L31,50.2z M54.9,60L54.9,60l2.9-4H26.6L1.7,89.3h31.2l12.4-16.6c3.6-4.7,17.3-4.5,13.3,0.9l-8.3,11
	c-1.9,2.6-0.9,4.7,2.3,4.7c0,0,30.7,0,31.1,0c0.5,0,0.7-0.2,0.1-0.5c-1.5-0.8-3.6-2.6-1.1-5.9l10-13.4C107.9,49.1,64.3,54,54.9,60z"
	/>
<g>
	<g>
		<path class="st2" d="M257.1,40.2l-9.9-16h-4.4v22.2h3.7V30.1c0,0,9.1,14.5,9.7,15.2c0.8,1,1.7,1.3,2.8,1c1.1-0.3,1.8-1.1,1.8-2.4
			V24.2h-3.7V40.2z"/>
		<g>
			<path class="st2" d="M324.5,24.2l-4.1,17.4l-4-15.6c-0.3-1.1-1.3-1.8-2.5-1.8c-1.2,0-2.2,0.7-2.5,1.9c-0.3,1.2-4,14.7-4,14.7
				l-4.1-16.6h-39.9v18c0,2.3,1.9,4.2,4.2,4.2h12V44c0-0.7-0.5-1.2-1.2-1.2h-9.9c-0.7,0-1.3-0.6-1.3-1.3v-5h10
				c0.7,0,1.2-0.5,1.2-1.2v-2h-11.2v-5.8h20.3v18.9h3.9V27.6h8.8l5,18.9h2.8c0.7,0,1.3-0.5,1.5-1.1l4.3-15.4l4.5,16.5h2.8
				c0.7,0,1.3-0.5,1.5-1.1l5.8-21.1H324.5z"/>
		</g>
		<path class="st2" d="M338.9,23.7c-6.7,0-10.6,5.3-10.6,11.6c0,6.4,4,11.6,10.6,11.6c6.7,0,10.7-5.3,10.7-11.6
			C349.5,29,345.5,23.7,338.9,23.7z M338.9,43.4c-4.8,0-6.8-3.8-6.8-8.1s2-8.1,6.8-8.1c4.8,0,6.8,3.8,6.8,8.1S343.6,43.4,338.9,43.4
			z"/>
		<g>
			<path class="st2" d="M365.9,36.5c0,0,3.6-1.4,3.6-6.2c0-3.8-2.5-6-7.3-6h-6.4c-2.3,0-4.2,1.9-4.2,4.2v18h3.9v-9.2h7.1
				c0,0,2.5,5.9,3.8,9.2h4L365.9,36.5z M361.8,34.1h-6.4v-5.4c0-0.7,0.5-1.2,1.2-1.3h5.1c2,0,3.9,0.6,3.9,3.4
				C365.6,33.1,364.2,34.1,361.8,34.1z"/>
		</g>
		<path class="st2" d="M411.8,24.2l-0.5,1.5l-0.5-1.5h-0.3V26h0.2v-1.1c0,0,0-0.1,0-0.2c0-0.1,0-0.2,0-0.2v-0.1l0.5,1.5h0.2l0.5-1.5
			c0,0.1,0,0.2,0,0.3c0,0.1,0,0.1,0,0.2V26h0.2v-1.8H411.8z"/>
		<polygon class="st2" points="408.8,24.4 409.4,24.4 409.4,26 409.6,26 409.6,24.4 410.2,24.4 410.2,24.2 408.8,24.2 		"/>
		<g>
			<polygon class="st2" points="381.9,33.1 390.8,24.2 386,24.2 376.1,34.3 376.1,24.2 372.2,24.2 372.2,46.4 376.1,46.4 376.1,39 
				379.3,35.8 386.6,46.4 391.4,46.4 			"/>
		</g>
		<path class="st2" d="M404.5,34.3c-1.2-0.3-6.1-1.6-6.4-1.7c-1.6-0.4-2.6-1.3-2.6-2.9c0-2.2,2.3-2.9,4.1-2.9c2.3,0,4,0.8,4.6,2.8
			c0.2,0.6,0.7,1.2,1.4,1.2h2.7c0-4.6-3.9-7.1-8.5-7.1c-4,0-8.1,2.1-8.1,6.5c0,2.3,1.1,4.6,4.9,5.6c3.1,0.8,5.1,1.2,6.6,1.8
			c0.9,0.3,1.8,1,1.8,2.7c0,1.7-1.3,3.4-4.7,3.4c-2.7,0-5-1-5.5-3.6c-0.1-0.6-0.6-1.2-1.3-1.2h-2.7c0.1,5.5,4.2,7.9,9.3,7.9
			c4.4,0,8.8-2,8.8-7C408.8,37.7,407.4,35.2,404.5,34.3z"/>
	</g>
	<g>
		<g>
			<polygon class="st2" points="129.3,24.2 129.3,33 119.2,33 119.2,24.2 115.3,24.2 115.3,46.4 119.2,46.4 119.2,36.4 129.3,36.4 
				129.3,46.4 133.3,46.4 133.3,24.2 			"/>
		</g>
		<path class="st2" d="M147.5,25.8c-0.4-0.9-1.3-1.6-2.4-1.6c-1.1,0-2.1,0.7-2.4,1.7h0l-8.2,20.5h2.8c0.7,0,1.4-0.5,1.6-1.1l1.7-4.8
			h8.9l2.1,5.9h4.2L147.5,25.8L147.5,25.8z M141.7,37.6l3.4-9.6l3.4,9.6H141.7z"/>
		<g>
			<path class="st2" d="M229.6,24.2v16l-9.9-16h-4.4v22.2h3.7V30.1c0,0,9.1,14.5,9.7,15.2c0.8,1,1.7,1.3,2.8,1
				c1.1-0.3,1.8-1.1,1.8-2.4V24.2H229.6z"/>
		</g>
		<path class="st2" d="M212.1,42.8h-9.9c-0.7,0-1.3-0.6-1.3-1.3v-5h10c0.7,0,1.2-0.5,1.2-1.2v-2h-11.2v-5.8h10.9
			c0.7,0,1.2-0.5,1.2-1.2v-2.2h-16v18c0,2.3,1.9,4.2,4.2,4.2h12V44C213.3,43.3,212.7,42.8,212.1,42.8z"/>
		<path class="st2" d="M190.5,34.3c-1.2-0.3-6.1-1.6-6.4-1.7c-1.6-0.4-2.6-1.3-2.6-2.9c0-2.2,2.3-2.9,4.1-2.9c2.3,0,4,0.8,4.6,2.8
			c0.2,0.6,0.7,1.2,1.4,1.2h2.7c0-4.6-3.9-7.1-8.5-7.1c-4,0-8.1,2.1-8.1,6.5c0,2.3,1.1,4.6,4.9,5.6c3.1,0.8,5.1,1.2,6.6,1.8
			c0.9,0.3,1.8,1,1.8,2.7c0,1.7-1.3,3.4-4.7,3.4c-2.7,0-5-1-5.5-3.6c-0.1-0.6-0.6-1.2-1.3-1.2h-2.7c0.1,5.5,4.2,7.9,9.3,7.9
			c4.4,0,8.8-2,8.8-7C194.8,37.7,193.4,35.2,190.5,34.3z"/>
		<g>
			<path class="st2" d="M171.3,24.2v16l-9.9-16H157v22.2h3.7V30.1c0,0,9.1,14.5,9.7,15.2c0.8,1,1.7,1.3,2.8,1
				c1.1-0.3,1.8-1.1,1.8-2.4V24.2H171.3z"/>
		</g>
	</g>
</g>
<g>
</g>
<g>
</g>
<g>
</g>
<g>
</g>
<g>
</g>
<g>
</g>
</svg>
